<svg width="80" height="80" viewBox="0 0 100 100" xmlns="http://www.w3.org/2000/svg">
    <path d="
    M 50,45
    m -45,0
    a 45,45 0 1,0 90,0
    a 45,45 0 1,0 -90,0
    M 30,35
    h 40
    a 4,4 0 0,1 4,4
    v 0
    a 4,4 0 0,1 -4,4
    h -40
    a 4,4 0 0,1 -4,-4
    v 0
    a 4,4 0 0,1 4,-4
    z
    M 30,50
    h 30
    a 4,4 0 0,1 4,4
    v 0
    a 4,4 0 0,1 -4,4
    h -30
    a 4,4 0 0,1 -4,-4
    v 0
    a 4,4 0 0,1 4,-4
    z
  " fill="black" fill-rule="evenodd" />

    <polygon points="14,18 15,60 0,50" fill="black" />
</svg>