<svg viewBox="0 0 606.877 606.877" xmlns="http://www.w3.org/2000/svg">
	<title>Modules Icon</title>

	<!-- Red Accent Square -->
	<path d="M58.64,280.154h162.654c32.058,0,58.14-26.082,58.14-58.14V59.36c0-32.059-26.082-58.14-58.14-58.14H58.64 C26.582,1.22,0.5,27.301,0.5,59.36v162.654C0.5,254.072,26.582,280.154,58.64,280.154z" fill="#FFCCCC"/>

	<!-- Main Icon Shape (Color controlled by CSS) -->
	<g fill="currentColor">
		<path d="M221.294,280.654H58.64c-32.334,0-58.64-26.306-58.64-58.64V59.36C0,27.025,26.306,0.72,58.64,0.72h162.654 c32.334,0,58.64,26.306,58.64,58.64v162.654C279.934,254.348,253.628,280.654,221.294,280.654z"/>
		<path d="M548.238,1.22H385.584c-32.059,0-58.141,26.082-58.141,58.14v162.654c0,32.058,26.082,58.14,58.141,58.14h162.654 c32.059,0,58.139-26.082,58.139-58.14V59.36C606.377,27.301,580.297,1.22,548.238,1.22z"/>
		<path d="M58.64,605.657h162.654c32.058,0,58.14-26.08,58.14-58.139V384.864c0-32.059-26.082-58.141-58.14-58.141H58.64 c-32.058,0-58.14,26.082-58.14,58.141v162.654C0.5,579.577,26.582,605.657,58.64,605.657z"/>
		<path d="M548.238,326.724H385.584c-32.059,0-58.141,26.082-58.141,58.141v162.654c0,32.059,26.082,58.139,58.141,58.139h162.654 c32.059,0,58.139-26.08,58.139-58.139V384.864C606.377,352.806,580.297,326.724,548.238,326.724z"/>
	</g>
</svg>