<svg viewBox="0 0 24 24" xmlns="http://www.w3.org/2000/svg">
    <path fill="#000000"
        d="M12,2.5 C12.7796706,2.5 13.4204457,3.09488554 13.4931332,3.85553954 L13.5,4 L13.5,20 C13.5,20.8284 12.8284,21.5 12,21.5 C11.2203294,21.5 10.5795543,20.9050879 10.5068668,20.1444558 L10.5,20 L10.5,4 C10.5,3.17157 11.1716,2.5 12,2.5 Z M8,5.5 C8.82843,5.5 9.5,6.17157 9.5,7 L9.5,17 C9.5,17.8284 8.82843,18.5 8,18.5 C7.17157,18.5 6.5,17.8284 6.5,17 L6.5,7 C6.5,6.17157 7.17157,5.5 8,5.5 Z M16,5.5 C16.8284,5.5 17.5,6.17157 17.5,7 L17.5,17 C17.5,17.8284 16.8284,18.5 16,18.5 C15.1716,18.5 14.5,17.8284 14.5,17 L14.5,7 C14.5,6.17157 15.1716,5.5 16,5.5 Z M4,8.5 C4.82843,8.5 5.5,9.17157 5.5,10 L5.5,14 C5.5,14.8284 4.82843,15.5 4,15.5 C3.17157,15.5 2.5,14.8284 2.5,14 L2.5,10 C2.5,9.17157 3.17157,8.5 4,8.5 Z M20,8.5 C20.7796706,8.5 21.4204457,9.09488554 21.4931332,9.85553954 L21.5,10 L21.5,14 C21.5,14.8284 20.8284,15.5 20,15.5 C19.2203294,15.5 18.5795543,14.9050879 18.5068668,14.1444558 L18.5,14 L18.5,10 C18.5,9.17157 19.1716,8.5 20,8.5 Z" />
</svg>