<svg version="1.1" xmlns="http://www.w3.org/2000/svg" x="0px" y="0px" width="256" height="256"
    viewBox="0 0 256 256">
    <g>
        <path fill="none" stroke="#000000" stroke-width="15" stroke-linejoin="round"
            d="M120.3,10.5c-28.4,2-54.9,16-73.1,38.7c-11.8,14.7-19.3,31.7-23.3,52.4c-1.2,6.3-1.2,7.1-1.4,74.6l-0.2,68.3l1.4,0.9c1.2,0.8,1.5,0.8,2.9,0.1c0.8-0.4,6.7-6.1,13.1-12.5c6.4-6.5,12.4-12,13.4-12.5c2.1-0.9,6.1-1,8.3-0.2c0.8,0.3,6.8,5.8,13.2,12.1c7.1,7,12.5,11.9,13.7,12.4c2.5,1,6.5,1,9.1-0.1c1.3-0.5,6.3-5,13.6-12.4c6.4-6.3,12.3-11.8,13.1-12.1c2-0.8,6-0.8,7.9,0c0.8,0.3,6.8,5.7,13.2,12.1c7.2,7.2,12.4,11.9,13.6,12.4c2.6,1,6.5,1,9.1,0c1.3-0.6,6.4-5.2,13.6-12.4c6.4-6.3,12.4-11.8,13.2-12.1c2.2-0.8,6.2-0.8,8.3,0.2c1,0.4,7,6,13.4,12.5c6.4,6.4,12.3,12,13.1,12.5c1.4,0.8,1.7,0.8,2.9-0.1l1.3-0.8v-65.4c0-55.7-0.1-66.3-0.8-71.9c-3.4-25.9-13.6-47.9-30.3-65.2c-15.5-16-33.8-26-55.8-30.2c-3.6-0.7-19.2-2.1-20.1-1.8C126.5,10,123.7,10.3,120.3,10.5z M91.4,88.5c10.6,2.3,19.2,10.8,21.8,21.4c1,4.4,1,8.1,0,12.5c-2.8,11.5-12,19.9-23.9,21.6c-13.5,1.9-27.3-7.3-30.8-20.6c-1-3.6-1-10.8,0-14.5c2.4-9.2,9.4-16.6,18.1-19.5C82.4,87.6,85.8,87.4,91.4,88.5z M179.3,89.4c8.7,3,14.7,9,17.8,17.6c1.5,4.3,1.8,11.8,0.6,16.4c-3.3,12.3-14.4,20.8-27.1,20.8c-13.5-0.1-24.5-8.7-27.6-21.7c-4.3-18.1,10.4-35.6,29-34.4C174.2,88.1,177.5,88.8,179.3,89.4z" />
    </g>
</svg>