<svg xmlns="http://www.w3.org/2000/svg" width="2730.7" height="2730.7" viewBox="0 0 2048 2048">
    <path
        d="M1010 333q-16 1-34 8l-36 19-12 7-22 13-41 23-46 27-10 5-10 6-36 21-9 5-11 6-10 6-6 3-6 4-13 7-12 8-22 12-10 6-21 12-31 18-5 3-8 4-5 3-8 5-11 6-71 41-9 5-54 35c-16 17-25 32-31 55-2 6-2 13-3 38-1 43-1 532 1 541l6 25a119 119 0 0 0 56 62 1684 1684 0 0 0 107 63l19 11 14 8 89 53 31 17 20 12 13 8 31 18a856 856 0 0 1 81 47l12 7 14 8 17 10 25 15 12 7c17 9 25 12 41 16a178 178 0 0 0 63-2 87 87 0 0 0 30-12l49-29 29-17 10-5 21-13 10-6 15-9 9-5 3-2 5-3 7-4 8-4 4-3 5-3 6-3 8-5 15-9 8-4 55-33 12-7 8-4 2-2 10-5 8-5 6-3 7-5 31-18 9-5 51-30 5-3 6-3 10-6 11-7 14-8 3-1 9-6 12-7 6-3 7-5c3 0 14-9 22-16l17-20 4-7c7-12 10-22 13-39l1-285c0-284 0-286-3-299a114 114 0 0 0-61-73l-32-18-16-10-15-8-16-9-9-5-12-7-11-7-21-12-42-24-85-49-22-13-48-28-24-13-23-13-12-7-6-4-8-4-8-5-19-11-12-7-18-10-10-6-9-5a137 137 0 0 0-88-21m25 111 15 7 15 9 8 5 16 9 16 9 21 12 13 8 7 4 7 4 10 7 22 13 68 40c21 11 22 16 8 27l-55 37-55 37-65 44-24 16-87 58-103 69-37 25q-14 10-20 12-4 3-10 0l-19-12-31-20-34-24-62-43-23-16-74-52q-12-7-12-13c0-4 4-7 20-16l158-92 7-4 5-3 7-4 38-22 12-7 15-9 24-14 23-13 6-4 6-4 47-26 18-11 21-12 22-13 24-14q18-9 32-4m364 212 33 18 20 11 10 6 12 7 17 10 19 11q21 10 22 25l1 182v176l-3 2-6 2c-3 0-10-3-13-6l-12-9-68-47-54-37-26-18-27-19-27-19a3499 3499 0 0 1-143-100l-22-15q-5-5 0-11l71-48 181-122q7-2 15 1M529 843l20 13 30 21 146 102 26 18 66 46 52 36 26 18 26 18 15 11q9 7 10 12 1 6-26 22l-30 19-54 37-47 31-27 18-67 44c-35 24-42 28-48 30-7 2-11 1-43-18l-22-13-15-9c-42-25-45-27-49-36l-4-6v-205c0-185 0-206 2-208q4-6 13-1m746 230 11 6 94 65 28 19 96 66c24 17 28 21 25 32q-5 16-23 25l-39 24-9 5-9 5-8 5-17 10-15 9-10 6-57 34-42 24-13 8-13 8-19 11-71 42-4 3-9 5-54 32-39 23-9 6c-31 18-38 21-51 19-8-2-13-4-23-10l-10-7-41-25-18-11-24-14-22-13-80-48-40-25q-3-3-1-6 1-5 19-15l37-25 117-78 108-71 219-145q7-3 16 1" />
</svg>